
endheader
time	pelvis_tilt	pelvis_list	pelvis_rotation	pelvis_tx	pelvis_ty	pelvis_tz	hip_flexion_r	hip_adduction_r	hip_rotation_r	knee_angle_r	ankle_angle_r	subtalar_angle_r	mtp_angle_r	hip_flexion_l	hip_adduction_l	hip_rotation_l	knee_angle_l	ankle_angle_l	subtalar_angle_l	mtp_angle_l	lumbar_extension	lumbar_bending	lumbar_rotation	arm_flex_r	arm_add_r	arm_rot_r	elbow_flex_r	pro_sup_r	wrist_flex_r	wrist_dev_r	arm_flex_l	arm_add_l	arm_rot_l	elbow_flex_l	pro_sup_l	wrist_flex_l	wrist_dev_l
0	-0.160007	-0.0920953	3.13382	-0.287796	0.922272	-0.0110932	-0.474747	-0.112172	-0.139304	0.536228	0.0788864	0	0	0.439748	0.0473014	-0.159296	0.538015	-0.0277232	0	0	-0.359994	-0.1472	0.224546	0.609316	-0.367338	1.12311	0.804704	0.555867	0	0	-0.115434	-0.353689	1.57085	0.341155	0.000451253	0	0
0.00999079	-0.159836	-0.0951159	3.1309	-0.289093	0.922894	-0.00910896	-0.444424	-0.128869	-0.146467	0.597917	0.0339527	0	0	0.431389	0.0519627	-0.162047	0.554837	-0.00851295	0	0	-0.357317	-0.149329	0.215821	0.601049	-0.35407	1.16657	0.776031	0.527858	0	0	-0.104889	-0.349293	1.57083	0.343343	0.000390444	0	0
0.0199816	-0.159757	-0.0981139	3.12801	-0.290364	0.923539	-0.00712505	-0.414097	-0.145464	-0.153465	0.659438	-0.0107218	0	0	0.422783	0.0566615	-0.164715	0.571349	0.0107223	0	0	-0.354788	-0.151402	0.206932	0.592817	-0.34078	1.21012	0.74734	0.499798	0	0	-0.0942307	-0.34489	1.57081	0.345558	0.000325139	0	0
0.0299724	-0.15989	-0.101034	3.12519	-0.291571	0.924245	-0.00514608	-0.383733	-0.161775	-0.16005	0.720484	-0.0546671	0	0	0.413588	0.0614215	-0.167171	0.587092	0.0299732	0	0	-0.352613	-0.153327	0.197675	0.584624	-0.327459	1.25372	0.718626	0.471686	0	0	-0.0832717	-0.34048	1.57079	0.347834	0.000246952	0	0
0.0399632	-0.160343	-0.103788	3.12245	-0.292667	0.925055	-0.00318146	-0.353289	-0.177549	-0.165954	0.780624	-0.0972249	0	0	0.403453	0.0662257	-0.169277	0.601554	0.0491588	0	0	-0.350998	-0.154996	0.187881	0.576418	-0.314132	1.29718	0.689925	0.443581	0	0	-0.0717813	-0.336065	1.57076	0.350207	0.000144257	0	0
0.049954	-0.161182	-0.106267	3.11982	-0.293605	0.926017	-0.00124393	-0.322709	-0.192483	-0.170922	0.839346	-0.137548	0	0	0.392086	0.0710086	-0.170929	0.614237	0.0681196	0	0	-0.350101	-0.156293	0.177466	0.568075	-0.300892	1.34004	0.66135	0.415588	0	0	-0.0595066	-0.331659	1.57074	0.352705	2.97e-06	0	0
0.0599448	-0.162398	-0.108347	3.11729	-0.294347	0.927175	0.000652852	-0.291913	-0.20625	-0.174744	0.896111	-0.174607	0	0	0.379297	0.0756586	-0.172071	0.624706	0.0866402	0	0	-0.349991	-0.15711	0.166458	0.559393	-0.287904	1.38166	0.633094	0.387845	0	0	-0.0461908	-0.327281	1.5707	0.35535	-0.000192434	0	0
0.0699355	-0.163908	-0.109889	3.11486	-0.294863	0.928564	0.00249687	-0.260799	-0.218508	-0.177275	0.950417	-0.207207	0	0	0.365027	0.0800235	-0.172681	0.632621	0.104488	0	0	-0.350634	-0.157335	0.154998	0.550102	-0.275412	1.42121	0.605438	0.360489	0	0	-0.0315924	-0.322951	1.57067	0.358157	-0.000457507	0	0
0.0799263	-0.165561	-0.110744	3.11256	-0.295138	0.930208	0.00427992	-0.229253	-0.228918	-0.178457	1.00181	-0.234041	0	0	0.349338	0.0839221	-0.172751	0.637761	0.121455	0	0	-0.351901	-0.156846	0.143333	0.539887	-0.263726	1.45777	0.578739	0.333638	0	0	-0.0154966	-0.31868	1.57063	0.361137	-0.000805884	0	0
0.0899171	-0.16717	-0.110759	3.11042	-0.295168	0.932119	0.00599899	-0.197188	-0.237174	-0.178341	1.04988	-0.253873	0	0	0.332379	0.0871664	-0.172263	0.640013	0.137368	0	0	-0.353606	-0.155519	0.131796	0.528403	-0.25322	1.49038	0.553422	0.307472	0	0	0.00228448	-0.314469	1.57059	0.364303	-0.00124664	0	0
0.0999079	-0.16855	-0.109802	3.10849	-0.294963	0.934296	0.00765614	-0.164578	-0.24304	-0.177099	1.09419	-0.265868	0	0	0.314341	0.0895917	-0.171182	0.63936	0.152095	0	0	-0.355556	-0.153244	0.120772	0.515316	-0.244289	1.51814	0.529928	0.282188	0	0	0.0219125	-0.310302	1.57055	0.367669	-0.00178083	0	0
0.109899	-0.169545	-0.107774	3.10683	-0.294539	0.936732	0.0092567	-0.131481	-0.246375	-0.175005	1.13429	-0.26988	0	0	0.295412	0.0910801	-0.169459	0.635847	0.165549	0	0	-0.357586	-0.149946	0.110672	0.500358	-0.237311	1.54055	0.508663	0.257853	0	0	0.0435296	-0.306158	1.57053	0.371255	-0.00239708	0	0
0.11989	-0.170042	-0.104637	3.10551	-0.293922	0.939407	0.0108073	-0.0980245	-0.24715	-0.172394	1.16974	-0.266491	0	0	0.275755	0.0915765	-0.167041	0.629562	0.177679	0	0	-0.359588	-0.145609	0.101907	0.483354	-0.232597	1.55761	0.489936	0.234298	0	0	0.0672661	-0.302014	1.57052	0.375086	-0.00306627	0	0
0.12988	-0.169991	-0.100414	3.10462	-0.293142	0.942295	0.0123157	-0.0644223	-0.245457	-0.169643	1.2001	-0.256832	0	0	0.255481	0.0910976	-0.16387	0.620627	0.188459	0	0	-0.36151	-0.140259	0.0947527	0.464251	-0.23033	1.5696	0.473928	0.211234	0	0	0.0931739	-0.297846	1.57053	0.379191	-0.0037354	0	0
0.139871	-0.169396	-0.0951976	3.10423	-0.292226	0.945363	0.0137897	-0.0309428	-0.241501	-0.167135	1.22507	-0.242307	0	0	0.234666	0.0897255	-0.159892	0.609199	0.197886	0	0	-0.363343	-0.133958	0.0893385	0.443105	-0.230562	1.57697	0.460694	0.188356	0	0	0.121223	-0.293637	1.57059	0.383611	-0.00432093	0	0
0.149862	-0.1683	-0.0891278	3.10444	-0.291202	0.948567	0.0152352	0.00212228	-0.235568	-0.165227	1.24438	-0.224347	0	0	0.213363	0.0875868	-0.155069	0.595467	0.205989	0	0	-0.365106	-0.126791	0.0856366	0.420061	-0.233222	1.58017	0.450164	0.16545	0	0	0.151296	-0.289386	1.57071	0.388391	-0.00470209	0	0
0.159853	-0.166773	-0.0823769	3.1053	-0.290091	0.951859	0.016656	0.0344839	-0.228002	-0.164214	1.25791	-0.204242	0	0	0.191616	0.0848293	-0.149391	0.579653	0.21284	0	0	-0.366819	-0.118846	0.0834442	0.39536	-0.238127	1.57956	0.442161	0.14247	0	0	0.183169	-0.285121	1.57091	0.393591	-0.00471506	0	0
0.169843	-0.164906	-0.0751358	3.10686	-0.288912	0.955183	0.0180533	0.0658764	-0.219172	-0.164316	1.26564	-0.183051	0	0	0.169466	0.0816092	-0.142888	0.562011	0.218546	0	0	-0.368483	-0.110206	0.0823803	0.369335	-0.244996	1.57546	0.436418	0.119597	0	0	0.216506	-0.280909	1.5712	0.399272	-0.00414919	0	0
0.179834	-0.162802	-0.0675964	3.10911	-0.287679	0.958479	0.0194256	0.0960666	-0.209452	-0.165662	1.26763	-0.161595	0	0	0.146948	0.0780737	-0.13563	0.542816	0.223246	0	0	-0.370079	-0.100944	0.0819181	0.342405	-0.253483	1.56805	0.432606	0.0972379	0	0	0.250872	-0.276867	1.57161	0.405498	-0.00274684	0	0
0.189825	-0.160574	-0.0599428	3.11199	-0.286401	0.961688	0.0207676	0.124863	-0.19919	-0.168285	1.26401	-0.140475	0	0	0.124095	0.0743535	-0.127736	0.522354	0.2271	0	0	-0.371569	-0.0911312	0.0814352	0.315059	-0.26321	1.55749	0.430358	0.0759938	0	0	0.285765	-0.273169	1.57215	0.412336	-0.000209015	0	0
0.199816	-0.158333	-0.0523361	3.1154	-0.28508	0.96475	0.0220714	0.152119	-0.18869	-0.172127	1.25497	-0.120126	0	0	0.100936	0.0705529	-0.119373	0.500912	0.230286	0	0	-0.372908	-0.0808464	0.0803175	0.287814	-0.273819	1.54397	0.429311	0.0565799	0	0	0.320676	-0.270034	1.57282	0.419857	0.00379062	0	0
0.209807	-0.156173	-0.0449101	3.11919	-0.283721	0.96761	0.0233282	0.177732	-0.178198	-0.177058	1.2407	-0.100854	0	0	0.0775003	0.066753	-0.110734	0.478759	0.232989	0	0	-0.374053	-0.0701969	0.0780576	0.261161	-0.285005	1.5278	0.429126	0.0396745	0	0	0.355158	-0.267696	1.57362	0.428124	0.00958049	0	0
0.219797	-0.154161	-0.0377819	3.12322	-0.282328	0.970218	0.0245298	0.201647	-0.167919	-0.182907	1.2214	-0.0828713	0	0	0.0538286	0.0630319	-0.102021	0.456137	0.235392	0	0	-0.374951	-0.0593293	0.0742933	0.235536	-0.296512	1.50957	0.429478	0.0257161	0	0	0.388842	-0.266383	1.57452	0.437192	0.0174513	0	0
0.229788	-0.152317	-0.0310576	3.12731	-0.280907	0.972529	0.0256668	0.223858	-0.15802	-0.18947	1.19729	-0.0663093	0	0	0.0299821	0.0594717	-0.0934315	0.433255	0.237659	0	0	-0.375539	-0.0484396	0.0688449	0.211296	-0.308121	1.49013	0.430033	0.0147527	0	0	0.42147	-0.266292	1.57546	0.447093	0.0275982	0	0
0.239779	-0.15063	-0.0248269	3.13129	-0.279468	0.974502	0.0267292	0.244392	-0.148617	-0.196524	1.16855	-0.0512346	0	0	0.00603027	0.0561519	-0.0851611	0.410285	0.239934	0	0	-0.375764	-0.0377547	0.0617118	0.188706	-0.319647	1.47049	0.430463	0.00657592	0	0	0.452882	-0.267572	1.57635	0.457844	0.0400425	0	0
0.24977	-0.149059	-0.0191677	3.13499	-0.278022	0.976107	0.0277053	0.263305	-0.139785	-0.203836	1.13534	-0.0376688	0	0	-0.0179397	0.0531525	-0.0773822	0.387375	0.242346	0	0	-0.375564	-0.0275165	0.0530072	0.167945	-0.330924	1.45164	0.430448	0.000830656	0	0	0.482987	-0.270327	1.57706	0.469443	0.0546202	0	0
0.259761	-0.147579	-0.0141322	3.13826	-0.276581	0.977318	0.028585	0.280626	-0.131545	-0.211172	1.09782	-0.0256146	0	0	-0.0418668	0.0505411	-0.0702363	0.364666	0.245012	0	0	-0.37494	-0.0179269	0.0429415	0.149116	-0.341854	1.43444	0.429761	-0.00290387	0	0	0.511761	-0.274611	1.57739	0.481886	0.0710629	0	0
0.269751	-0.146194	-0.00974505	3.14097	-0.275153	0.97812	0.0293593	0.296352	-0.123867	-0.218297	1.05612	-0.0150765	0	0	-0.0657171	0.048368	-0.0638257	0.342298	0.248032	0	0	-0.373957	-0.00914001	0.0318127	0.132227	-0.352403	1.41941	0.428295	-0.00505669	0	0	0.539237	-0.280416	1.57707	0.495166	0.089099	0	0
0.279742	-0.144933	-0.00600191	3.14303	-0.273746	0.978503	0.0300236	0.310448	-0.116677	-0.224987	1.01037	-0.0060593	0	0	-0.089478	0.046662	-0.0582027	0.320428	0.251499	0	0	-0.372761	-0.00126262	0.0200324	0.117146	-0.362617	1.40664	0.426088	-0.0060279	0	0	0.565521	-0.287644	1.5758	0.509265	0.108533	0	0
0.289733	-0.143812	-0.0028923	3.14439	-0.27237	0.978465	0.0305733	0.322897	-0.109891	-0.231037	0.960744	0.00144783	0	0	-0.113112	0.0454433	-0.0533654	0.299225	0.255496	0	0	-0.371454	0.00565413	0.00788477	0.103772	-0.372514	1.39623	0.423163	-0.0061672	0	0	0.590646	-0.296227	1.57318	0.524163	0.129218	0	0
0.299724	-0.142837	-0.000387481	3.14504	-0.271033	0.978009	0.0310054	0.33371	-0.103403	-0.236253	0.907445	0.00748576	0	0	-0.136558	0.0447084	-0.0492776	0.27888	0.260117	0	0	-0.370137	0.0116069	-0.00435159	0.0919524	-0.382121	1.38809	0.419582	-0.00576425	0	0	0.61464	-0.306056	1.56877	0.539829	0.151101	0	0
0.309715	-0.141991	0.00155819	3.14503	-0.269744	0.977143	0.0313184	0.34294	-0.0971067	-0.240453	0.850783	0.0121508	0	0	-0.159721	0.0444264	-0.0458702	0.259596	0.265454	0	0	-0.36889	0.0166363	-0.0164207	0.0814832	-0.391461	1.38193	0.415435	-0.00504725	0	0	0.637518	-0.316987	1.56213	0.556207	0.174208	0	0
0.319705	-0.141232	0.00300384	3.14442	-0.268515	0.975881	0.0315129	0.350706	-0.0908967	-0.24347	0.791182	0.0156141	0	0	-0.182473	0.0445391	-0.043048	0.241575	0.271589	0	0	-0.367759	0.0208179	-0.0280956	0.0721232	-0.400544	1.37734	0.410825	-0.00418698	0	0	0.659286	-0.32884	1.55281	0.573218	0.198614	0	0
